<svg xmlns="http://www.w3.org/2000/svg" viewBox="0 0 200 200"><defs><linearGradient x1="0" y1="0" x2="0" y2="110%" id="g1"><stop stop-color="#ff4" offset="0"/><stop stop-color="#fb0ea0" offset="100%"/></linearGradient></defs><g stroke="none" fill="none"><path fill="url(#g1)" d="M47 185C42 182 37 178 33 174L167 174C163 178 158 182 153 185L47 185ZM58 191L142 191C129 197 115 200 100 200 85 200 71 197 58 191ZM27 168C23 165 21 161 18 157L182 157C179 161 177 165 173 168L27 168ZM14 151C12 147 10 144 8 140L192 140C190 144 188 147 186 151L14 151ZM6 134C5 130 4 127 3 123L197 123C196 127 195 130 194 134L6 134ZM1 117C1 113 0 110 0 106L200 106C200 110 199 113 199 117L1 117ZM0 100C0 45 45 0 100 0 155 0 200 45 200 100L0 100Z"/></g></svg>
